<svg version="1.2" xmlns="http://www.w3.org/2000/svg" viewBox="0 0 24 24" width="24" height="24">
	<title>login-2-svgrepo-com-svg</title>
	<style>
		.s0 { fill: #c38dff } 
	</style>
	<path id="Layer" class="s0" d="m14.9 1.3c-1.3-0.1-2.4-0.1-3.3 0.1-0.9 0.1-1.6 0.3-2.3 0.9-0.5 0.6-0.7 1.2-0.9 2-0.1 0.7-0.1 1.6-0.1 2.7-0.1 0.4 0.3 0.7 0.7 0.7 0.4 0.1 0.7-0.3 0.8-0.7 0-1.1 0-1.9 0.1-2.5 0.1-0.5 0.3-0.8 0.5-1.1 0.3-0.3 0.7-0.4 1.4-0.5 0.8-0.1 1.8-0.2 3.2-0.2h1c1.4 0 2.4 0.1 3.2 0.2 0.7 0.1 1.1 0.2 1.4 0.5 0.3 0.3 0.4 0.7 0.5 1.4 0.1 0.8 0.2 1.8 0.2 3.2v8c0 1.4-0.1 2.4-0.2 3.2-0.1 0.7-0.2 1.1-0.5 1.4-0.3 0.3-0.7 0.4-1.4 0.5-0.8 0.1-1.8 0.1-3.2 0.1h-1c-1.4 0-2.4 0-3.2-0.1-0.7-0.1-1.1-0.2-1.4-0.5-0.2-0.3-0.4-0.6-0.5-1.1-0.1-0.6-0.1-1.4-0.1-2.5-0.1-0.4-0.4-0.8-0.8-0.8-0.4 0.1-0.8 0.4-0.7 0.8 0 1.1 0 2 0.1 2.7 0.2 0.8 0.4 1.4 0.9 2 0.7 0.6 1.4 0.8 2.3 0.9 0.9 0.1 2 0.1 3.3 0.1h1.2c1.3 0 2.4 0 3.3-0.1 0.9-0.1 1.6-0.3 2.3-0.9 0.6-0.7 0.8-1.4 0.9-2.3 0.2-0.9 0.2-2 0.2-3.3v-8.2c0-1.3 0-2.4-0.2-3.3-0.1-0.9-0.3-1.6-0.9-2.3-0.7-0.6-1.4-0.8-2.3-0.9-0.9-0.2-2-0.2-3.3-0.2z"/>
	<path id="Layer" class="s0" d="m2 11.2c-0.4 0-0.7 0.4-0.7 0.8 0 0.4 0.3 0.7 0.7 0.7h12l-2 1.7c-0.3 0.3-0.3 0.8-0.1 1.1 0.3 0.3 0.8 0.3 1.1 0.1l3.5-3q0.2-0.3 0.3-0.6-0.1-0.3-0.3-0.6l-3.5-3c-0.3-0.2-0.8-0.2-1.1 0.1-0.2 0.3-0.2 0.8 0.1 1.1l2 1.6z"/>
</svg>