<svg version="1.2" xmlns="http://www.w3.org/2000/svg" viewBox="0 0 16 16" width="40" height="40">
	<title>settings-svg</title>
	<style>
		.s0 { fill: #c38dff } 
	</style>
	<path id="Layer" fill-rule="evenodd" class="s0" d="m9.4 1l0.3 1.3q1.4 0.4 2.4 1.4l1.2-0.4 1.5 2.4-1 0.9c0.1 0.4 0.2 0.9 0.2 1.4 0 0.5-0.1 1-0.2 1.4l1 0.9-1.5 2.4-1.2-0.4q-1 1-2.4 1.4l-0.3 1.3h-2.8l-0.3-1.3q-1.4-0.4-2.4-1.4l-1.2 0.4-1.5-2.4 1-0.9c-0.1-0.4-0.2-0.9-0.2-1.4 0-0.5 0.1-1 0.2-1.4l-1-0.9 1.5-2.4 1.2 0.4c0.7-0.7 1.5-1.1 2.4-1.4l0.3-1.3zm-2.3 2.1h-0.3c-1 0.3-1.8 0.8-2.5 1.5l-0.2 0.2-1.1-0.3-0.6 1 0.9 0.7-0.1 0.3q-0.3 0.7-0.3 1.5 0 0.8 0.3 1.5l0.1 0.3-0.9 0.7 0.6 1 1.1-0.3 0.2 0.2c0.7 0.7 1.5 1.2 2.5 1.5h0.3l0.2 1.1h1.2l0.2-1.1h0.4c0.9-0.3 1.8-0.8 2.5-1.5l0.2-0.2 1 0.3 0.6-1-0.8-0.7 0.1-0.3q0.2-0.7 0.2-1.5 0-0.8-0.2-1.5l-0.1-0.3 0.8-0.7-0.6-1-1 0.3-0.2-0.2c-0.7-0.7-1.6-1.2-2.5-1.5h-0.4l-0.2-1.1h-1.2zm3.8 4.9c0 1.7-1.3 3-3 3-1.6 0-3-1.3-3-3 0-1.6 1.4-3 3-3 1.7 0 3 1.4 3 3zm-5 0c0 1.2 0.9 2 2 2 1.1 0 2-0.8 2-2 0-1.1-0.9-2-2-2-1.1 0-2 0.9-2 2z"/>
</svg>